Coordinates
version=1
nRows=65
nColumns=12
inDegrees=yes

Units are S.I. units (second, meters, Newtons, ...)
Angles are in degrees

endheader
time	SC_y	SC_z	SC_x	AC_y	AC_z	AC_x	GH_y	GH_z	GH_yy	EL_x	PS_y
       0.0              -18.08         -2.922          49.78          38.39         -1.957         -3.987          164.1          8.523         -39.83          105.0          14.97
   0.01686              -18.08         -2.916          49.77          38.39         -1.959         -3.986          164.1          8.523         -39.81          105.0          14.99
   0.03372              -18.08          -2.91          49.77          38.39          -1.96         -3.984          164.0          8.523         -39.79          105.0           15.0
   0.05058              -18.08         -2.904          49.76          38.39         -1.962         -3.982          164.0          8.523         -39.77          105.0          15.03
   0.06744              -18.08         -2.897          49.75          38.39         -1.963          -3.98          164.0          8.523         -39.75          105.0          15.05
    0.0843              -18.08          -2.89          49.75          38.39         -1.965         -3.978          164.0          8.523         -39.72          105.0          15.07
    0.1012              -18.08         -2.883          49.74          38.39         -1.967         -3.976          163.9          8.523          -39.7          105.0           15.1
     0.118              -18.08         -2.875          49.73          38.39         -1.969         -3.974          163.9          8.522         -39.67          105.0          15.12
    0.1349              -18.08         -2.866          49.72          38.39         -1.971         -3.971          163.9          8.522         -39.64          105.0          15.15
    0.1517              -18.08         -2.857          49.71          38.39         -1.973         -3.969          163.8          8.522         -39.61          105.0          15.18
    0.1686              -18.08         -2.847           49.7          38.39         -1.976         -3.966          163.8          8.522         -39.58          104.9          15.21
    0.1855              -18.08         -2.836          49.69          38.39         -1.978         -3.963          163.7          8.522         -39.54          104.9          15.25
    0.2023              -18.08         -2.824          49.68          38.39         -1.981         -3.959          163.7          8.522          -39.5          104.9          15.29
    0.2192              -18.09         -2.812          49.67          38.39         -1.984         -3.956          163.6          8.522         -39.46          104.9          15.33
     0.236              -18.09         -2.798          49.65          38.39         -1.987         -3.952          163.6          8.522         -39.41          104.9          15.37
    0.2529              -18.09         -2.784          49.64          38.39         -1.991         -3.948          163.5          8.522         -39.36          104.9          15.42
    0.2698              -18.09         -2.768          49.62          38.39         -1.995         -3.943          163.4          8.522         -39.31          104.9          15.48
    0.2866              -18.09          -2.75           49.6          38.39         -1.999         -3.938          163.3          8.522         -39.25          104.8          15.53
    0.3035              -18.09         -2.731          49.59          38.39         -2.003         -3.933          163.3          8.521         -39.19          104.8           15.6
    0.3204              -18.09          -2.71          49.56          38.39         -2.008         -3.927          163.2          8.521         -39.12          104.8          15.66
    0.3372              -18.09         -2.688          49.54          38.39         -2.014          -3.92          163.1          8.521         -39.04          104.8          15.74
    0.3541              -18.09         -2.662          49.52          38.39          -2.02         -3.913          162.9          8.521         -38.96          104.7          15.82
    0.3709              -18.09         -2.635          49.49           38.4         -2.027         -3.905          162.8          8.521         -38.86          104.7          15.91
    0.3878              -18.09         -2.604          49.46           38.4         -2.034         -3.896          162.7          8.521         -38.76          104.7          16.02
    0.4047              -18.09          -2.57          49.42           38.4         -2.042         -3.886          162.5           8.52         -38.65          104.6          16.13
    0.4215              -18.09         -2.532          49.38           38.4         -2.051         -3.875          162.4           8.52         -38.52          104.6          16.25
    0.4384              -18.09         -2.489          49.34           38.4         -2.062         -3.863          162.2           8.52         -38.37          104.5           16.4
    0.4552              -18.09         -2.441          49.29           38.4         -2.073         -3.849          162.0          8.519         -38.21          104.5          16.55
    0.4721              -18.09         -2.387          49.23           38.4         -2.086         -3.833          161.7          8.519         -38.03          104.4          16.73
     0.489               -18.1         -2.325          49.17           38.4         -2.101         -3.816          161.5          8.519         -37.82          104.4          16.94
    0.5058               -18.1         -2.255           49.1           38.4         -2.118         -3.795          161.1          8.518         -37.59          104.3          17.17
    0.5227               -18.1         -2.174          49.02           38.4         -2.138         -3.772          160.8          8.518         -37.31          104.2          17.44
    0.5395               -18.1         -2.081          48.92          38.41          -2.16         -3.745          160.4          8.517          -37.0          104.1          17.74
    0.5564               -18.1         -1.972          48.81          38.41         -2.186         -3.714          159.9          8.516         -36.64          104.0           18.1
    0.5733              -18.11         -1.845          48.68          38.41         -2.217         -3.678          159.3          8.515         -36.21          103.8          18.52
    0.5901              -18.11         -1.696          48.53          38.41         -2.253         -3.635          158.7          8.514         -35.71          103.7          19.01
     0.607              -18.11         -1.518          48.35          38.42         -2.295         -3.584          157.9          8.513         -35.11          103.5           19.6
    0.6238              -18.12         -1.305          48.13          38.42         -2.347         -3.522          156.9          8.511         -34.39          103.2           20.3
    0.6407              -18.13         -1.048          47.87          38.43         -2.409         -3.448          155.8           8.51         -33.53          102.9          21.15
    0.6576              -18.13        -0.7332          47.55          38.43         -2.484         -3.358          154.4          8.507         -32.47          102.6          22.19
    0.6744              -18.14        -0.3449          47.15          38.44         -2.578         -3.246          152.7          8.505         -31.16          102.2          23.47
    0.6913              -18.15         0.1394          46.66          38.45         -2.694         -3.107          150.5          8.501         -29.53          101.6          25.07
    0.7081              -18.17         0.7494          46.04          38.46         -2.841         -2.931          147.8          8.497         -27.48          100.9          27.08
     0.725              -18.18          1.525          45.25          38.48         -3.028         -2.708          144.4          8.492         -24.87          100.1          29.64
    0.7419              -18.21          2.517          44.23           38.5         -3.267         -2.422          140.0          8.485         -21.53          98.98          32.92
    0.7587              -18.24          3.791          42.94          38.52         -3.573         -2.056          134.3          8.476         -17.25          97.56          37.12
    0.7756              -18.27          5.418          41.28          38.56         -3.965         -1.588          127.1          8.464         -11.77          95.75          42.49
    0.7925              -18.32          7.464          39.19           38.6         -4.457        -0.9991          118.0           8.45         -4.892          93.48          49.25
    0.8093              -18.38          9.957          36.65          38.65         -5.057        -0.2817          106.9          8.432          3.495          90.71          57.48
    0.8262              -18.44          12.85           33.7           38.7         -5.753         0.5498          94.11          8.412          13.22          87.49          67.02
     0.843              -18.52          15.98          30.51          38.76         -6.506           1.45          80.22           8.39          23.74          84.01          77.34
    0.8599              -18.59           19.1          27.32          38.83         -7.259           2.35          66.33          8.368          34.27          80.53          87.67
    0.8768              -18.65          21.99          24.37          38.88         -7.955          3.182          53.51          8.348          43.99          77.32          97.21
    0.8936              -18.71          24.49          21.83          38.93         -8.555          3.899          42.44           8.33          52.38          74.55          105.4
    0.9105              -18.76          26.53          19.75          38.97         -9.047          4.488          33.36          8.316          59.26          72.27          112.2
    0.9273              -18.79          28.16          18.09          39.01         -9.439          4.956          26.14          8.304          64.73          70.47          117.6
    0.9442              -18.82          29.43          16.79          39.03         -9.746          5.323          20.49          8.295          69.02          69.05          121.8
    0.9611              -18.85          30.43          15.78          39.05         -9.984          5.608          16.08          8.288          72.36          67.95          125.0
    0.9779              -18.86           31.2          14.99          39.07         -10.17          5.831          12.64          8.283          74.96          67.08          127.6
    0.9948              -18.88          31.81          14.36          39.08         -10.32          6.007          9.932          8.279          77.02          66.41          129.6
     1.012              -18.89           32.3          13.87          39.09         -10.43          6.146          7.783          8.275          78.65          65.87          131.2
     1.029               -18.9          32.68          13.47           39.1         -10.53          6.258          6.059          8.273          79.95          65.44          132.5
     1.045              -18.91           33.0          13.15           39.1          -10.6          6.348          4.663           8.27          81.01          65.09          133.5
     1.062              -18.91          33.26          12.89          39.11         -10.67          6.423          3.519          8.269          81.88           64.8          134.4
     1.079              -18.92          33.47          12.67          39.11         -10.72          6.484          2.574          8.267          82.59          64.56          135.1
